<svg width="50" height="50" viewBox="0 0 50 50" fill="none" xmlns="http://www.w3.org/2000/svg">
<g id="iconamoon:gift-duotone">
<g id="Group">
<path id="Vector" opacity="0.16" d="M8.33334 39.5833V25H41.6667V39.5833C41.6667 40.6884 41.2277 41.7482 40.4463 42.5296C39.6649 43.311 38.6051 43.75 37.5 43.75H12.5C11.3949 43.75 10.3351 43.311 9.55372 42.5296C8.77232 41.7482 8.33334 40.6884 8.33334 39.5833Z" fill="white"/>
<path id="Vector_2" d="M25 25V41.6667M8.33334 22.9167V39.5833C8.33334 40.6884 8.77232 41.7482 9.55372 42.5296C10.3351 43.311 11.3949 43.75 12.5 43.75H37.5C38.6051 43.75 39.6649 43.311 40.4463 42.5296C41.2277 41.7482 41.6667 40.6884 41.6667 39.5833V22.9167" stroke="#ddd" stroke-width="4.16667" stroke-linecap="round" stroke-linejoin="round"/>
<path id="Vector_3" d="M25 11.4583C25 9.52446 24.2318 7.6698 22.8643 6.30235C21.4969 4.93489 19.6422 4.16667 17.7083 4.16667C16.327 4.16667 15.0022 4.7154 14.0255 5.69215C13.0487 6.66891 12.5 7.99367 12.5 9.375C12.5 10.7563 13.0487 12.0811 14.0255 13.0578C15.0022 14.0346 16.327 14.5833 17.7083 14.5833H25M25 11.4583V14.5833M25 11.4583C25 9.52446 25.7682 7.6698 27.1357 6.30235C28.5031 4.93489 30.3578 4.16667 32.2917 4.16667C33.673 4.16667 34.9978 4.7154 35.9745 5.69215C36.9513 6.66891 37.5 7.99367 37.5 9.375C37.5 10.059 37.3653 10.7362 37.1035 11.3681C36.8418 12 36.4582 12.5742 35.9745 13.0578C35.4909 13.5415 34.9167 13.9251 34.2848 14.1869C33.6529 14.4486 32.9756 14.5833 32.2917 14.5833H25" stroke="#ddd" stroke-width="4.16667" stroke-linejoin="round"/>
<path id="Vector_4" d="M25 22.9167V43.75M6.25 14.5833H43.75V22.9167H6.25V14.5833Z" stroke="#ddd" stroke-width="4.16667" stroke-linecap="round" stroke-linejoin="round"/>
</g>
</g>
</svg>
