<svg width="500" height="500" viewBox="0 0 500 500" fill="none" xmlns="http://www.w3.org/2000/svg">
<g clip-path="url(#clip0_31_236)">
<path d="M-0.78125 364.922C-0.78125 419.141 111.133 463.008 249.18 463.008C387.227 463.008 499.18 419.141 499.18 364.922C499.18 310.742 493.438 36.9922 249.18 36.9922C4.96094 36.9922 -0.78125 310.742 -0.78125 364.922Z" fill="#FCC21B"/>
<path d="M121.563 247.812C120.586 247.812 119.648 247.812 118.672 247.773C115.828 247.664 113.145 246.429 111.211 244.342C109.277 242.254 108.252 239.484 108.359 236.641C108.594 230.703 113.555 226.055 119.492 226.328C143.672 227.266 165 211.523 171.289 188.086C172.813 182.344 178.711 178.945 184.453 180.508C190.195 182.031 193.594 187.93 192.031 193.672C183.398 225.859 154.648 247.812 121.563 247.812ZM376.836 247.812C343.75 247.812 315 225.859 306.367 193.594C305.638 190.844 306.025 187.916 307.444 185.451C308.864 182.985 311.201 181.18 313.945 180.43C319.688 178.906 325.586 182.305 327.109 188.008C333.398 211.445 354.727 227.187 378.906 226.25C381.746 226.155 384.509 227.185 386.594 229.116C388.679 231.047 389.917 233.723 390.039 236.563C390.273 242.5 385.664 247.5 379.727 247.695C378.75 247.812 377.812 247.812 376.836 247.812Z" fill="#2F2F2F"/>
<path d="M27.0703 263.828C31.1328 282.148 43.0859 293.555 53.1641 296.68C64.4531 300.156 74.6875 298.477 81.9922 291.992C91.25 283.75 94.4531 269.18 91.0938 250.937C84.9609 218.164 89.2969 160.43 89.3359 159.883C89.4922 157.656 88.3984 155.625 86.3672 154.687C84.4141 153.672 82.0703 154.063 80.4297 155.547C24.4141 206.484 22.9297 245.234 27.0703 263.828Z" fill="white"/>
<path d="M331.406 268.711C294.375 268.711 282.148 286.914 249.18 286.914C216.211 286.914 203.984 268.711 166.953 268.711C129.922 268.711 99.9219 294.727 99.9219 326.836C99.9219 358.945 129.922 384.961 166.953 384.961C203.984 384.961 216.211 366.758 249.18 366.758C282.148 366.758 294.375 384.961 331.406 384.961C368.437 384.961 398.437 358.906 398.437 326.797C398.437 294.727 368.437 268.711 331.406 268.711Z" fill="#ED6C30"/>
</g>
<defs>
<clipPath id="clip0_31_236">
<rect width="500" height="500" fill="white"/>
</clipPath>
</defs>
</svg>
