<svg width="96" height="101" viewBox="0 0 96 101" fill="none" xmlns="http://www.w3.org/2000/svg">
<g clip-path="url(#clip0_28_170)">
<path d="M8.63362 26.2351C9.21988 26.2444 9.80214 26.137 10.3465 25.9191C10.8908 25.7012 11.3864 25.3772 11.8042 24.9659C12.2221 24.5546 12.554 24.0643 12.7805 23.5235C13.0071 22.9827 13.1237 22.4022 13.1237 21.8159C13.1237 21.2295 13.0071 20.6491 12.7805 20.1083C12.554 19.5674 12.2221 19.0771 11.8042 18.6658C11.3864 18.2545 10.8908 17.9305 10.3465 17.7126C9.80214 17.4947 9.21988 17.3873 8.63362 17.3966C6.21907 17.4332 4.28064 19.4011 4.28064 21.816C4.28064 24.231 6.21907 26.1985 8.63362 26.2351ZM76.3176 22.4892C76.9028 22.4967 77.4836 22.3879 78.0265 22.1692C78.5693 21.9504 79.0633 21.6261 79.4797 21.2149C79.8962 20.8037 80.2268 20.3139 80.4525 19.7739C80.6781 19.2339 80.7943 18.6545 80.7942 18.0692C80.7941 17.484 80.6778 16.9046 80.452 16.3646C80.2263 15.8247 79.8955 15.335 79.4789 14.9239C79.0624 14.5128 78.5683 14.1885 78.0254 13.9699C77.4825 13.7513 76.9016 13.6427 76.3165 13.6504C73.9019 13.6869 71.9638 15.6552 71.9638 18.0702C71.9642 20.4851 73.903 22.453 76.3176 22.4892Z" fill="#FF37AD"/>
<path d="M79.9041 79.2675C80.4903 79.2768 81.0726 79.1693 81.6169 78.9513C82.1612 78.7334 82.6567 78.4093 83.0745 77.9979C83.4924 77.5866 83.8242 77.0962 84.0506 76.5554C84.2771 76.0146 84.3937 75.4341 84.3936 74.8477C84.3935 74.2614 84.2768 73.681 84.0502 73.1402C83.8236 72.5994 83.4917 72.1091 83.0737 71.6979C82.6558 71.2867 82.1602 70.9627 81.6158 70.7449C81.0715 70.527 80.4892 70.4197 79.903 70.4291C77.4884 70.4657 75.5503 72.434 75.5507 74.8489C75.5507 77.2638 77.4895 79.2313 79.9041 79.2675ZM26.6836 9.33918C27.2687 9.34678 27.8496 9.23809 28.3925 9.01941C28.9353 8.80072 29.4294 8.4764 29.8459 8.06527C30.2624 7.65413 30.5931 7.16437 30.8188 6.62441C31.0445 6.08444 31.1608 5.50502 31.1608 4.91978C31.1608 4.33453 31.0445 3.75511 30.8188 3.21514C30.5931 2.67518 30.2624 2.18542 29.8459 1.77428C29.4294 1.36315 28.9353 1.03883 28.3925 0.820146C27.8496 0.601462 27.2687 0.492769 26.6836 0.500373C24.2686 0.537313 22.3306 2.50485 22.3306 4.91978C22.3306 7.3347 24.269 9.30261 26.6836 9.33918Z" fill="#FCC954"/>
<path d="M52.8302 40.0299C52.3061 40.0298 51.7888 39.9104 51.3177 39.6806C50.8466 39.4508 50.434 39.1167 50.1112 38.7037C49.7885 38.2907 49.5641 37.8096 49.455 37.2969C49.3459 36.7842 49.355 36.2534 49.4817 35.7448C49.6198 35.1918 49.7324 34.6366 49.8171 34.0825C48.7816 34.51 47.6785 34.7505 46.5589 34.7929C44.5519 34.8694 42.7548 34.531 41.2231 33.7892C39.7221 33.07 38.4721 31.9159 37.6358 30.4769C35.9884 27.6216 36.1306 23.8657 37.9955 20.9078C39.7735 18.084 42.7851 16.5556 46.05 16.8052C48.5649 17.0019 50.769 17.9437 52.5343 19.5597C52.8556 18.653 53.1638 17.6817 53.4571 16.6481C55.2604 10.2832 55.856 3.89179 55.8608 3.82724C55.9016 3.3761 56.0309 2.93743 56.2413 2.53627C56.4517 2.13512 56.739 1.77936 57.087 1.48932C57.4349 1.19928 57.8366 0.980651 58.2691 0.84592C58.7016 0.711189 59.1563 0.663 59.6075 0.704107C60.5185 0.787228 61.3592 1.22869 61.9448 1.93147C62.5305 2.63424 62.8131 3.54079 62.7306 4.45187C62.7056 4.73806 62.0709 11.5526 60.0933 18.5321C59.0948 22.0563 57.9149 25.0343 56.5783 27.4119C56.6769 27.9418 56.7556 28.4858 56.8138 29.0433C57.0922 31.734 56.8705 34.6306 56.1742 37.4183C55.9868 38.1635 55.5561 38.825 54.9505 39.2979C54.3448 39.7708 53.5987 40.0287 52.8302 40.0299ZM45.3216 23.6761C44.9649 23.6761 44.3366 23.7806 43.8306 24.5828C43.3463 25.3515 43.2515 26.4011 43.6112 27.0246C44.0895 27.8541 45.497 27.9265 46.294 27.8963C47.1985 27.8619 48.1254 27.2948 49.0321 26.2612C48.8807 25.9451 48.7022 25.6427 48.4985 25.3575C47.7496 24.3175 46.8019 23.7858 45.5142 23.6851C45.4657 23.6821 45.4004 23.6761 45.3216 23.6761Z" fill="#2890E9"/>
<path d="M42.9109 49.4806C28.6038 38.203 13.6497 33.3168 9.51011 38.5679C9.12064 39.0674 8.83436 39.6393 8.66795 40.2504C8.64254 40.3246 8.62308 40.4007 8.60974 40.478V40.487C8.55414 40.7228 8.51272 40.9608 8.48548 41.2023L0.385484 88.6269C-0.911904 96.2433 6.62802 102.341 13.806 99.4825L57.7318 81.9795C58.5064 81.6713 60.4127 80.4937 60.9344 79.8437C61.0724 79.7086 61.2019 79.5649 61.3213 79.4134C65.4601 74.1616 57.2168 60.7612 42.9109 49.4795V49.4806Z" fill="#F0A420"/>
<path d="M61.3165 79.4157C65.4582 74.162 57.2179 60.759 42.9109 49.4806C28.6038 38.2019 13.6478 33.3179 9.50638 38.5717C5.36459 43.8254 13.6045 57.2284 27.9116 68.5067C42.2187 79.7855 57.1747 84.6694 61.3165 79.4157Z" fill="#FCC954"/>
<path d="M58.8186 76.356C62.2171 72.044 54.7306 60.4742 42.0959 50.5142C29.4612 40.5534 16.4627 35.9746 13.0645 40.2854C9.66527 44.5974 17.1518 56.1672 29.7865 66.1272C42.4209 76.0881 55.4198 80.6679 58.8186 76.356Z" fill="#F0A420"/>
<path d="M28.619 93.5806C23.2731 93.6067 18.916 90.931 13.6347 86.7683C7.48914 81.9217 3.4078 76.1213 3.08579 72.8172L1.34399 83.0138C2.14996 85.9235 4.89735 89.6119 8.88205 92.753C12.1966 95.3664 15.5403 97.1608 19.0071 97.4097L28.619 93.5791V93.5806ZM23.2712 75.0731C13.0313 66.9996 6.37907 57.7347 6.56601 52.4355L4.86862 62.372C4.99959 67.1052 10.5309 74.7541 18.3992 80.9571C25.4492 86.5153 32.7959 90.4272 38.4216 89.6746L47.9712 85.8687C40.2772 86.4004 32.1593 82.0821 23.2712 75.0731Z" fill="#2E6AC9"/>
<path d="M44.4682 54.6239C45.0534 54.6315 45.6343 54.5228 46.1771 54.3041C46.72 54.0854 47.214 53.7611 47.6305 53.35C48.047 52.9388 48.3778 52.4491 48.6035 51.9091C48.8292 51.3691 48.9454 50.7897 48.9454 50.2045C48.9454 49.6192 48.8292 49.0398 48.6035 48.4998C48.3778 47.9599 48.047 47.4701 47.6305 47.059C47.214 46.6478 46.72 46.3235 46.1771 46.1048C45.6343 45.8862 45.0534 45.7775 44.4682 45.7851C42.0537 45.8216 40.1152 47.7895 40.1152 50.2045C40.1152 52.6194 42.0537 54.5873 44.4682 54.6239Z" fill="#2890E9"/>
<path d="M68.303 46.025L68.3355 45.9888C68.3758 45.9455 68.4504 45.8657 68.5578 45.7571C68.8926 45.4242 69.2412 45.1056 69.6026 44.8019C70.931 43.6899 72.3825 42.7347 73.9287 41.9548C77.7078 40.0425 83.3347 38.4821 90.7142 40.1836C92.9317 40.6948 95.1433 39.3119 95.6549 37.0948C96.1661 34.8776 94.7832 32.6657 92.566 32.1545C83.0131 29.9519 75.4179 31.9657 70.2071 34.6045C68.0914 35.6721 66.106 36.9804 64.2903 38.5034C63.7453 38.9611 63.2205 39.4424 62.7175 39.9459C62.5223 40.1421 62.332 40.343 62.1466 40.5485L62.1019 40.5989L62.0862 40.6168L62.0787 40.625L62.0761 40.628C62.075 40.6298 62.0728 40.6317 65.1959 43.3183L62.0728 40.6317C60.6261 42.3563 60.831 44.9228 62.5328 46.3959C64.2347 47.869 66.8037 47.7041 68.303 46.025ZM27.4888 16.6373C27.1815 16.1493 26.781 15.7266 26.31 15.3937C25.8391 15.0607 25.3071 14.8239 24.7446 14.6969C24.182 14.5699 23.5999 14.5552 23.0316 14.6535C22.4633 14.7519 21.92 14.9614 21.4328 15.2701C20.9453 15.5778 20.5232 15.9785 20.1906 16.4493C19.858 16.9201 19.6214 17.4519 19.4944 18.0142C19.3674 18.5765 19.3525 19.1583 19.4504 19.7264C19.5484 20.2945 19.7573 20.8377 20.0653 21.325C20.2246 21.5798 23.4899 26.8698 24.1608 34.1145C24.8437 41.4754 22.681 48.2414 17.7231 54.3086C19.3925 56.4302 21.4015 58.6354 23.6963 60.841C26.8717 57.1716 29.2608 53.2284 30.8306 49.0563C32.7616 43.9235 33.4448 38.481 32.8623 32.8817C31.9343 23.9735 28.059 17.5422 27.4888 16.6373Z" fill="#FF37AD"/>
<path d="M82.4187 58.9246C84.6582 59.5041 86.2411 60.1358 86.925 60.4299C87.7244 60.9205 88.659 61.1444 89.5939 61.0693C90.5289 60.9942 91.4157 60.6239 92.1265 60.0119C92.5974 59.6051 92.9773 59.1036 93.2414 58.54C93.5054 57.9765 93.6477 57.3636 93.659 56.7414C93.6747 55.8036 93.3919 54.8852 92.8512 54.1187C92.3106 53.3523 91.5402 52.7777 90.6515 52.478C88.5552 51.547 80.6123 48.4034 70.1127 48.9619C63.0452 49.3377 56.2489 51.2951 49.9138 54.7858C43.9153 58.0918 38.3452 62.7754 33.2885 68.7504C35.7009 70.4674 38.2141 72.0382 40.8146 73.4545C49.3526 63.7231 59.2037 58.4481 70.1802 57.7511C74.2961 57.5011 78.4253 57.897 82.4187 58.9246Z" fill="#2890E9"/>
</g>
<defs>
<clipPath id="clip0_28_170">
<rect width="95.53" height="100" fill="white" transform="translate(0.234985 0.5)"/>
</clipPath>
</defs>
</svg>
